<svg width="70" height="70" viewBox="0 0 70 70" fill="none" xmlns="http://www.w3.org/2000/svg">
<path fill-rule="evenodd" clip-rule="evenodd" d="M14.8147 14.7846C25.8835 3.73048 43.8793 3.84715 55.0152 14.9859C66.1568 26.1276 66.2735 44.1321 55.2018 55.2009C44.1302 66.2696 26.1285 66.1559 14.9868 55.0142C11.8525 51.8935 9.48434 48.0885 8.06835 43.8983C6.65237 39.708 6.22712 35.2465 6.82599 30.8642C6.90451 30.2891 7.20828 29.7687 7.67047 29.4175C8.13267 29.0664 8.71544 28.9132 9.29057 28.9917C9.86571 29.0702 10.3861 29.374 10.7373 29.8362C11.0884 30.2984 11.2416 30.8812 11.1631 31.4563C10.6547 35.1701 11.0146 38.9513 12.2145 42.5025C13.4144 46.0537 15.4217 49.2782 18.0785 51.9226C27.5431 61.3842 42.7768 61.4396 52.1102 52.1092C61.4406 42.7759 61.3852 27.5421 51.9235 18.0776C42.4647 8.62173 27.2397 8.56048 17.9064 17.8792L20.0881 17.888C20.3753 17.8893 20.6595 17.9472 20.9244 18.0584C21.1893 18.1696 21.4297 18.3318 21.6319 18.5359C21.8341 18.74 21.9941 18.9819 22.1028 19.2478C22.2115 19.5137 22.2667 19.7984 22.2654 20.0857C22.264 20.373 22.2061 20.6571 22.0949 20.922C21.9838 21.1869 21.8215 21.4273 21.6174 21.6295C21.4134 21.8317 21.1715 21.9917 20.9056 22.1004C20.6396 22.2091 20.3549 22.2643 20.0677 22.263L12.6418 22.228C12.0652 22.2249 11.5131 21.9943 11.1056 21.5863C10.6982 21.1783 10.4683 20.6259 10.466 20.0492L10.4281 12.6292C10.4265 12.342 10.4816 12.0572 10.5901 11.7912C10.6986 11.5252 10.8585 11.2832 11.0605 11.079C11.2626 10.8748 11.5029 10.7124 11.7677 10.601C12.0325 10.4897 12.3166 10.4316 12.6039 10.4301C12.8912 10.4285 13.1759 10.4836 13.4419 10.5921C13.7079 10.7006 13.9499 10.8605 14.1541 11.0625C14.3583 11.2646 14.5207 11.5048 14.6321 11.7697C14.7434 12.0345 14.8015 12.3186 14.8031 12.6059L14.8147 14.7846Z" fill="white"/>
<path d="M35 21.146C35.5802 21.146 36.1366 21.3765 36.5468 21.7867C36.957 22.1969 37.1875 22.7533 37.1875 23.3335V34.096L43.8375 40.746C44.0524 40.9463 44.2248 41.1878 44.3444 41.4561C44.4639 41.7244 44.5282 42.0141 44.5334 42.3078C44.5386 42.6015 44.4845 42.8933 44.3745 43.1657C44.2645 43.438 44.1007 43.6855 43.893 43.8932C43.6853 44.1009 43.4379 44.2647 43.1655 44.3747C42.8931 44.4847 42.6014 44.5387 42.3076 44.5336C42.0139 44.5284 41.7243 44.4641 41.4559 44.3445C41.1876 44.225 40.9461 44.0526 40.7458 43.8377L33.6671 36.7618C33.3959 36.4907 33.1808 36.1688 33.0342 35.8144C32.8875 35.4601 32.8122 35.0803 32.8125 34.6968V23.3335C32.8125 22.7533 33.043 22.1969 33.4532 21.7867C33.8634 21.3765 34.4198 21.146 35 21.146Z" fill="white"/>
</svg>
