<svg width="793" height="288" viewBox="0 0 793 288" fill="none" xmlns="http://www.w3.org/2000/svg">
<g clip-path="url(#clip0_474_2)">
<path d="M68.9244 154.77C68.9244 150.479 65.7826 148.333 59.4991 148.333H45.9359C33.9819 148.333 25.706 145.115 21.1083 138.678C19.5757 136.533 18.8094 134.08 18.8094 131.322V115.92C18.8094 110.709 21.4148 106.571 26.6255 103.506C31.9895 100.287 38.4263 98.6782 45.9359 98.6782H63.8669C71.3765 98.6782 77.7367 100.211 82.9474 103.276C88.3114 106.341 90.9934 110.556 90.9934 115.92V125.345H68.9244V117.989C68.9244 113.697 65.7826 111.552 59.4991 111.552H50.3037C44.0202 111.552 40.8784 113.697 40.8784 117.989V129.023C40.8784 133.621 44.0202 135.766 50.3037 135.46H63.8669C71.3765 135.46 77.7367 136.992 82.9474 140.057C88.3114 143.123 90.9934 147.337 90.9934 152.701V177.759C90.9934 183.123 88.2347 187.337 82.7175 190.402C77.66 193.467 71.3765 195 63.8669 195H45.9359C34.1351 195 25.8593 191.705 21.1083 185.115C19.5757 182.969 18.8094 180.517 18.8094 177.759V164.885H40.8784V175.69C40.8784 179.981 44.0202 182.126 50.3037 182.126H59.4991C65.7826 182.126 68.9244 179.981 68.9244 175.69V154.77ZM155.757 142.356C155.757 138.065 152.692 135.92 146.562 135.92H142.424C139.205 135.92 136.217 136.762 133.458 138.448C130.853 140.134 129.55 142.203 129.55 144.655V195H107.481V123.046H129.55V127.414C134.608 124.502 139.589 123.046 144.493 123.046H150.93C160.125 123.046 167.328 125.192 172.539 129.483C178.516 125.192 185.182 123.046 192.539 123.046H198.976C210.776 123.046 219.052 126.341 223.803 132.931C225.336 134.923 226.102 137.299 226.102 140.057V195H203.803V142.356C203.803 138.065 200.738 135.92 194.608 135.92H190.7C185.642 135.92 181.811 137.452 179.205 140.517C178.439 141.437 177.979 142.433 177.826 143.506V195H155.757V142.356ZM282.499 182.126C288.63 182.126 291.695 179.981 291.695 175.69V168.563C291.388 164.425 288.323 162.356 282.499 162.356H274.913C268.63 162.356 265.488 164.502 265.488 168.793V175.69C265.488 179.981 268.63 182.126 274.913 182.126H282.499ZM275.833 135.92C269.549 135.92 266.407 138.065 266.407 142.356V144.655H244.338V140.057C244.338 134.847 246.944 130.709 252.154 127.644C257.518 124.579 263.879 123.046 271.235 123.046H286.867C294.223 123.046 300.507 124.579 305.718 127.644C311.082 130.709 313.764 134.847 313.764 140.057V195H291.695V192.931C288.323 194.31 284.568 195 280.43 195H270.545C258.744 195 250.469 191.705 245.718 185.115C244.185 182.969 243.419 180.594 243.419 177.989V166.494C243.419 161.437 246.024 157.375 251.235 154.31C256.599 151.092 263.036 149.483 270.545 149.483H281.58C285.718 149.483 289.089 150.326 291.695 152.011V142.356C291.695 138.065 288.63 135.92 282.499 135.92H275.833ZM352.402 128.563C356.08 124.885 361.597 123.046 368.954 123.046H372.862V135.92H367.114C360.831 135.92 356.387 137.835 353.781 141.667C352.862 142.893 352.402 144.272 352.402 145.805V195H330.333V123.046H352.402V128.563ZM415.446 175.69C415.446 179.981 418.512 182.126 424.642 182.126H430.389V195H420.274C408.473 195 400.197 191.705 395.446 185.115C393.914 182.969 393.148 180.517 393.148 177.759V135.92H379.814V123.046H393.148V106.724H415.446V123.046H429.469V135.92H415.446V175.69ZM481.822 139.368C488.105 139.368 491.247 137.222 491.247 132.931V117.989C491.247 113.697 488.105 111.552 481.822 111.552H464.121V139.368H481.822ZM486.649 152.241L518.373 195H495.155L464.121 153.161V195H442.052V98.6782H486.419C493.776 98.6782 500.059 100.211 505.27 103.276C510.634 106.341 513.316 110.556 513.316 115.92V135C513.316 140.364 510.711 144.579 505.5 147.644C500.289 150.709 494.006 152.241 486.649 152.241ZM558.312 135.69C552.028 135.69 548.886 137.835 548.886 142.126V148.793H574.174V142.126C574.174 137.835 571.108 135.69 564.978 135.69H558.312ZM564.978 182.126C571.108 182.126 574.174 179.981 574.174 175.69V171.092H596.243V177.759C596.243 183.123 593.484 187.337 587.967 190.402C582.909 193.467 576.702 195 569.346 195H553.944C542.143 195 533.867 191.705 529.116 185.115C527.584 182.969 526.817 180.517 526.817 177.759V140.057C526.817 134.847 529.423 130.709 534.633 127.644C539.997 124.425 546.434 122.816 553.944 122.816H569.346C576.702 122.816 582.909 124.349 587.967 127.414C593.484 130.479 596.243 134.693 596.243 140.057V161.667H548.886V175.69C548.886 179.981 552.028 182.126 558.312 182.126H564.978ZM652.031 182.126C657.854 182.126 660.919 180.057 661.226 175.92V142.356C661.226 138.065 658.161 135.92 652.031 135.92H644.444C638.161 135.92 635.019 138.065 635.019 142.356V175.69C635.019 179.981 638.161 182.126 644.444 182.126H652.031ZM612.95 140.057C612.95 135 615.555 130.939 620.766 127.874C626.13 124.655 632.567 123.046 640.077 123.046H649.962C654.099 123.046 657.854 123.659 661.226 124.885V122.816H683.295V216.379H661.226V192.241C659.387 194.08 656.015 195 651.111 195H640.077C628.276 195 620 191.705 615.249 185.115C613.716 182.969 612.95 180.517 612.95 177.759V140.057ZM750.956 168.563C750.956 164.272 747.814 162.126 741.53 162.126H727.967C716.013 162.126 707.737 158.908 703.14 152.471C701.607 150.326 700.841 147.874 700.841 145.115V140.057C700.841 134.847 703.446 130.709 708.657 127.644C714.021 124.425 720.458 122.816 727.967 122.816H745.898C753.408 122.816 759.691 124.349 764.749 127.414C770.266 130.479 773.025 134.693 773.025 140.057V143.276H750.956V142.126C750.956 137.835 747.814 135.69 741.53 135.69H732.335C726.051 135.69 722.91 137.835 722.91 142.126V142.816C722.91 147.414 726.051 149.559 732.335 149.253H745.898C753.408 149.253 759.768 150.785 764.979 153.851C770.343 156.916 773.025 161.13 773.025 166.494V177.759C773.025 183.123 770.266 187.337 764.749 190.402C759.691 193.467 753.408 195 745.898 195H727.967C716.166 195 707.891 191.705 703.14 185.115C701.607 182.969 700.841 180.517 700.841 177.759V170.632H722.91V175.69C722.91 179.981 726.051 182.126 732.335 182.126H741.53C747.814 182.126 750.956 179.981 750.956 175.69V168.563Z" fill="white"/>
</g>
<defs>
<clipPath id="clip0_474_2">
<rect width="793" height="288" fill="white"/>
</clipPath>
</defs>
</svg>
