<svg width="60" height="60" viewBox="0 0 60 60" fill="none" xmlns="http://www.w3.org/2000/svg">
<mask id="path-1-inside-1_406_191" fill="white">
<path d="M60 29.97C60 13.425 46.56 0 30 0C13.44 0 0 13.425 0 29.97C0 39.0825 4.14 47.295 10.62 52.8075C10.68 52.8675 10.74 52.8675 10.74 52.9275C11.28 53.3475 11.82 53.7675 12.42 54.1875C12.72 54.3675 12.96 54.6037 13.26 54.8438C18.2198 58.2009 24.0709 59.9967 30.06 60C36.0491 59.9967 41.9002 58.2009 46.86 54.8438C47.16 54.6637 47.4 54.4275 47.7 54.2438C48.24 53.8275 48.84 53.4075 49.38 52.9875C49.44 52.9275 49.5 52.9275 49.5 52.8675C55.86 47.2912 60 39.0825 60 29.97ZM30 56.2238C24.36 56.2238 19.2 54.4237 14.94 51.4275C15 50.9475 15.12 50.4713 15.24 49.9913C15.5987 48.6908 16.123 47.4418 16.8 46.275C17.46 45.135 18.24 44.115 19.2 43.215C20.1 42.315 21.18 41.4788 22.26 40.8188C23.4 40.1588 24.6 39.6787 25.92 39.3187C27.2507 38.9623 28.6224 38.782 30 38.7825C34.0903 38.7515 38.0307 40.3207 40.98 43.155C42.36 44.535 43.44 46.1538 44.22 48.0113C44.64 49.0913 44.94 50.23 45.12 51.4275C40.6919 54.5406 35.4129 56.2152 30 56.2238ZM20.82 28.4737C20.2924 27.263 20.0266 25.9544 20.04 24.6337C20.04 23.3175 20.28 21.9975 20.82 20.7975C21.36 19.5975 22.08 18.5212 22.98 17.6213C23.88 16.7212 24.96 16.005 26.16 15.465C27.36 14.925 28.68 14.685 30 14.685C31.38 14.685 32.64 14.925 33.84 15.465C35.04 16.005 36.12 16.725 37.02 17.6213C37.92 18.5212 38.64 19.6012 39.18 20.7975C39.72 21.9975 39.96 23.3175 39.96 24.6337C39.96 26.0138 39.72 27.2738 39.18 28.47C38.6618 29.6539 37.9296 30.732 37.02 31.65C36.1016 32.5582 35.0236 33.2892 33.84 33.8063C31.3602 34.8232 28.5798 34.8232 26.1 33.8063C24.9164 33.2892 23.8384 32.5582 22.92 31.65C22.0097 30.7449 21.2949 29.6663 20.82 28.4737ZM48.66 48.3713C48.66 48.2513 48.6 48.1912 48.6 48.0713C48.011 46.1936 47.1411 44.416 46.02 42.7988C44.898 41.1696 43.5202 39.7324 41.94 38.5425C40.7327 37.634 39.4239 36.8688 38.04 36.2625C38.6667 35.8433 39.2496 35.3621 39.78 34.8262C40.6745 33.9431 41.4601 32.9561 42.12 31.8863C43.4534 29.705 44.14 27.19 44.1 24.6337C44.1196 22.7418 43.7521 20.8659 43.02 19.1213C42.2981 17.4399 41.2592 15.9134 39.96 14.625C38.6596 13.3539 37.1335 12.3365 35.46 11.625C33.7128 10.8932 31.8342 10.5269 29.94 10.5487C28.0456 10.5281 26.167 10.8957 24.42 11.6287C22.7282 12.3316 21.1971 13.3715 19.92 14.685C18.6423 15.9786 17.624 17.5048 16.92 19.1812C16.1879 20.9259 15.8204 22.8018 15.84 24.6938C15.84 26.0138 16.02 27.2725 16.38 28.47C16.74 29.73 17.22 30.87 17.88 31.9463C18.48 33.0262 19.32 33.9863 20.22 34.8863C20.76 35.4263 21.36 35.905 22.02 36.3225C20.6299 36.9414 19.3202 37.7271 18.12 38.6625C16.56 39.8625 15.18 41.2987 14.04 42.8587C12.9085 44.4699 12.0379 46.2492 11.46 48.1312C11.4 48.2513 11.4 48.3713 11.4 48.4313C6.66 43.635 3.72 37.1625 3.72 29.97C3.72 15.525 15.54 3.71625 30 3.71625C44.46 3.71625 56.28 15.525 56.28 29.97C56.2721 36.8698 53.5324 43.4858 48.66 48.3713Z"/>
</mask>
<path d="M60 29.97C60 13.425 46.56 0 30 0C13.44 0 0 13.425 0 29.97C0 39.0825 4.14 47.295 10.62 52.8075C10.68 52.8675 10.74 52.8675 10.74 52.9275C11.28 53.3475 11.82 53.7675 12.42 54.1875C12.72 54.3675 12.96 54.6037 13.26 54.8438C18.2198 58.2009 24.0709 59.9967 30.06 60C36.0491 59.9967 41.9002 58.2009 46.86 54.8438C47.16 54.6637 47.4 54.4275 47.7 54.2438C48.24 53.8275 48.84 53.4075 49.38 52.9875C49.44 52.9275 49.5 52.9275 49.5 52.8675C55.86 47.2912 60 39.0825 60 29.97ZM30 56.2238C24.36 56.2238 19.2 54.4237 14.94 51.4275C15 50.9475 15.12 50.4713 15.24 49.9913C15.5987 48.6908 16.123 47.4418 16.8 46.275C17.46 45.135 18.24 44.115 19.2 43.215C20.1 42.315 21.18 41.4788 22.26 40.8188C23.4 40.1588 24.6 39.6787 25.92 39.3187C27.2507 38.9623 28.6224 38.782 30 38.7825C34.0903 38.7515 38.0307 40.3207 40.98 43.155C42.36 44.535 43.44 46.1538 44.22 48.0113C44.64 49.0913 44.94 50.23 45.12 51.4275C40.6919 54.5406 35.4129 56.2152 30 56.2238ZM20.82 28.4737C20.2924 27.263 20.0266 25.9544 20.04 24.6337C20.04 23.3175 20.28 21.9975 20.82 20.7975C21.36 19.5975 22.08 18.5212 22.98 17.6213C23.88 16.7212 24.96 16.005 26.16 15.465C27.36 14.925 28.68 14.685 30 14.685C31.38 14.685 32.64 14.925 33.84 15.465C35.04 16.005 36.12 16.725 37.02 17.6213C37.92 18.5212 38.64 19.6012 39.18 20.7975C39.72 21.9975 39.96 23.3175 39.96 24.6337C39.96 26.0138 39.72 27.2738 39.18 28.47C38.6618 29.6539 37.9296 30.732 37.02 31.65C36.1016 32.5582 35.0236 33.2892 33.84 33.8063C31.3602 34.8232 28.5798 34.8232 26.1 33.8063C24.9164 33.2892 23.8384 32.5582 22.92 31.65C22.0097 30.7449 21.2949 29.6663 20.82 28.4737ZM48.66 48.3713C48.66 48.2513 48.6 48.1912 48.6 48.0713C48.011 46.1936 47.1411 44.416 46.02 42.7988C44.898 41.1696 43.5202 39.7324 41.94 38.5425C40.7327 37.634 39.4239 36.8688 38.04 36.2625C38.6667 35.8433 39.2496 35.3621 39.78 34.8262C40.6745 33.9431 41.4601 32.9561 42.12 31.8863C43.4534 29.705 44.14 27.19 44.1 24.6337C44.1196 22.7418 43.7521 20.8659 43.02 19.1213C42.2981 17.4399 41.2592 15.9134 39.96 14.625C38.6596 13.3539 37.1335 12.3365 35.46 11.625C33.7128 10.8932 31.8342 10.5269 29.94 10.5487C28.0456 10.5281 26.167 10.8957 24.42 11.6287C22.7282 12.3316 21.1971 13.3715 19.92 14.685C18.6423 15.9786 17.624 17.5048 16.92 19.1812C16.1879 20.9259 15.8204 22.8018 15.84 24.6938C15.84 26.0138 16.02 27.2725 16.38 28.47C16.74 29.73 17.22 30.87 17.88 31.9463C18.48 33.0262 19.32 33.9863 20.22 34.8863C20.76 35.4263 21.36 35.905 22.02 36.3225C20.6299 36.9414 19.3202 37.7271 18.12 38.6625C16.56 39.8625 15.18 41.2987 14.04 42.8587C12.9085 44.4699 12.0379 46.2492 11.46 48.1312C11.4 48.2513 11.4 48.3713 11.4 48.4313C6.66 43.635 3.72 37.1625 3.72 29.97C3.72 15.525 15.54 3.71625 30 3.71625C44.46 3.71625 56.28 15.525 56.28 29.97C56.2721 36.8698 53.5324 43.4858 48.66 48.3713Z" fill="white"/>
<path d="M10.62 52.8075L24.7621 38.6654L24.1926 38.0958L23.5791 37.5739L10.62 52.8075ZM10.74 52.9275H-9.26V62.7092L-1.53881 68.7145L10.74 52.9275ZM12.42 54.1875L0.950753 70.5721L1.52696 70.9755L2.13008 71.3374L12.42 54.1875ZM13.26 54.8438L0.766099 70.4611L1.38877 70.9593L2.04913 71.4062L13.26 54.8438ZM30.06 60L30.0491 80H30.06H30.0709L30.06 60ZM46.86 54.8438L36.5701 37.6939L36.1016 37.975L35.6491 38.2813L46.86 54.8438ZM47.7 54.2438L58.1462 71.2988L59.0608 70.7387L59.9102 70.084L47.7 54.2438ZM49.38 52.9875L61.6588 68.7745L62.6417 68.0101L63.5221 67.1296L49.38 52.9875ZM49.5 52.8675L36.3148 37.8292L29.5 43.8042V52.8675H49.5ZM30 56.2238V76.2237H30.0159L30.0317 76.2237L30 56.2238ZM14.94 51.4275L-4.90556 48.9468L-6.39624 60.8723L3.43406 67.7864L14.94 51.4275ZM15.24 49.9913L-4.04001 44.6732L-4.10425 44.9061L-4.16285 45.1405L15.24 49.9913ZM16.8 46.275L34.0991 56.3121L34.1038 56.3039L34.1085 56.2957L16.8 46.275ZM19.2 43.215L32.8788 57.8057L33.1141 57.5852L33.3421 57.3571L19.2 43.215ZM22.26 40.8188L12.2393 23.5102L12.0337 23.6292L11.831 23.7531L22.26 40.8188ZM25.92 39.3187L20.7456 19.9997L20.7016 20.0115L20.6577 20.0235L25.92 39.3187ZM30 38.7825L29.9935 58.7825L30.0724 58.7825L30.1514 58.7819L30 38.7825ZM40.98 43.155L55.1221 29.0129L54.9816 28.8723L54.8382 28.7345L40.98 43.155ZM44.22 48.0113L62.8601 40.7623L62.7634 40.5138L62.6602 40.2679L44.22 48.0113ZM45.12 51.4275L56.6225 67.7888L66.7353 60.6791L64.8978 48.4546L45.12 51.4275ZM20.82 28.4737L39.401 21.0746L39.2827 20.7775L39.155 20.4845L20.82 28.4737ZM20.04 24.6337L40.039 24.8365L40.04 24.7351V24.6337H20.04ZM37.02 17.6213L51.1621 3.47911L51.1474 3.46435L51.1326 3.44962L37.02 17.6213ZM39.18 20.7975L57.4184 12.5902L57.4136 12.5795L57.4088 12.5688L39.18 20.7975ZM39.18 28.47L20.9512 20.2413L20.904 20.3458L20.8581 20.4508L39.18 28.47ZM37.02 31.65L51.0834 45.8704L51.1559 45.7987L51.2276 45.7263L37.02 31.65ZM33.84 33.8063L41.4282 52.3108L41.6383 52.2247L41.8463 52.1338L33.84 33.8063ZM26.1 33.8063L18.0937 52.1338L18.3017 52.2247L18.5118 52.3108L26.1 33.8063ZM22.92 31.65L8.81905 45.8332L8.83779 45.8518L8.85659 45.8704L22.92 31.65ZM48.66 48.3713H28.66V96.7464L62.8209 62.4946L48.66 48.3713ZM48.6 48.0713H68.6V45.0077L67.683 42.0846L48.6 48.0713ZM46.02 42.7988L29.5487 54.1432L29.5659 54.1682L29.5832 54.1931L46.02 42.7988ZM41.94 38.5425L53.9705 22.5654L53.966 22.562L41.94 38.5425ZM38.04 36.2625L26.9192 19.6394L-3.41731 39.9343L30.014 54.5814L38.04 36.2625ZM39.78 34.8262L25.729 20.5936L25.647 20.6746L25.5659 20.7565L39.78 34.8262ZM42.12 31.8863L59.1425 42.3856L59.1634 42.3516L59.1842 42.3176L42.12 31.8863ZM44.1 24.6337L24.1011 24.4264L24.0984 24.6867L24.1025 24.9469L44.1 24.6337ZM43.02 19.1213L61.4622 11.3826L61.4302 11.3065L61.3977 11.2307L43.02 19.1213ZM39.96 14.625L54.0429 0.42392L53.9915 0.372879L53.9396 0.322212L39.96 14.625ZM35.46 11.625L43.2858 -6.78035L43.2361 -6.80147L43.1863 -6.82232L35.46 11.625ZM29.94 10.5487L29.7221 30.5476L29.9463 30.55L30.1704 30.5474L29.94 10.5487ZM24.42 11.6287L32.093 30.0983L32.126 30.0846L32.1589 30.0708L24.42 11.6287ZM19.92 14.685L34.1495 28.7392L34.2048 28.6832L34.2597 28.6268L19.92 14.685ZM16.92 19.1812L-1.52005 11.4376L-1.52217 11.4426L16.92 19.1812ZM15.84 24.6938H35.84V24.5901L35.8389 24.4864L15.84 24.6938ZM16.38 28.47L35.6105 22.9756L35.5728 22.8435L35.5332 22.712L16.38 28.47ZM17.88 31.9463L35.3631 22.2334L35.1543 21.8574L34.9295 21.4908L17.88 31.9463ZM22.02 36.3225L30.154 54.5938L64.2912 39.3966L32.7119 19.4203L22.02 36.3225ZM18.12 38.6625L30.3142 54.515L30.3642 54.4765L30.414 54.4378L18.12 38.6625ZM14.04 42.8587L-2.10782 31.0584L-2.2189 31.2104L-2.3271 31.3645L14.04 42.8587ZM11.46 48.1312L29.3485 57.0755L30.0915 55.5896L30.5791 54.0015L11.46 48.1312ZM11.4 48.4313L-2.82531 62.4897L31.4 97.1212V48.4313H11.4ZM56.28 29.97L76.28 29.9928L76.28 29.9814V29.97H56.28ZM80 29.97C80 2.35977 57.5861 -20 30 -20V20C35.5339 20 40 24.4902 40 29.97H80ZM30 -20C2.41385 -20 -20 2.35977 -20 29.97H20C20 24.4902 24.4661 20 30 20V-20ZM-20 29.97C-20 45.2605 -13.0417 58.9365 -2.33911 68.0411L23.5791 37.5739C21.3217 35.6535 20 32.9045 20 29.97H-20ZM-3.52214 66.9496C-2.29972 68.1721 -1.15845 68.9985 -0.430085 69.484C-0.106436 69.6998 0.16423 69.8656 0.167684 69.8678C0.275096 69.9342 -0.0490301 69.7368 -0.391743 69.5083C-0.968573 69.1238 -3.48264 67.4645 -5.65504 64.361C-8.2196 60.6973 -9.26 56.6186 -9.26 52.9275H30.74C30.74 49.2064 29.6921 45.1052 27.1144 41.4228C24.9289 38.3005 22.3961 36.6262 21.7967 36.2267C21.4428 35.9907 21.1065 35.7858 21.201 35.8443C21.2012 35.8444 21.2718 35.8879 21.36 35.9436C21.4542 36.0032 21.5925 36.0917 21.7582 36.2022C22.4584 36.669 23.5697 37.4729 24.7621 38.6654L-3.52214 66.9496ZM-1.53881 68.7145C-1.04462 69.0989 -0.122925 69.8206 0.950753 70.5721L23.8892 37.8029C23.8452 37.772 23.7666 37.7155 23.6263 37.6094C23.4715 37.4922 23.3049 37.3629 23.0188 37.1405L-1.53881 68.7145ZM2.13008 71.3374C1.01719 70.6696 0.260203 70.0428 0.0995914 69.9101C0.0519859 69.8707 0.0225223 69.8457 0.0305981 69.8526C0.0342923 69.8557 0.0405938 69.861 0.0576722 69.8755C0.0713394 69.8871 0.0976691 69.9094 0.124365 69.932C0.227295 70.0191 0.468864 70.2233 0.766099 70.4611L25.7539 39.2264C25.9011 39.3442 26.0002 39.4288 25.9644 39.3985C25.9564 39.3918 25.9483 39.3849 25.9277 39.3674C25.9105 39.3528 25.8827 39.3292 25.8524 39.3036C25.7925 39.253 25.6955 39.1713 25.5804 39.0762C25.1498 38.7203 24.1228 37.8854 22.7099 37.0376L2.13008 71.3374ZM2.04913 71.4062C10.3154 77.0015 20.0672 79.9946 30.0491 80L30.0709 40C28.0745 39.9989 26.1241 39.4003 24.4709 38.2813L2.04913 71.4062ZM30.0709 80C40.0528 79.9946 49.8046 77.0015 58.0709 71.4062L35.6491 38.2813C33.9959 39.4003 32.0455 39.9989 30.0491 40L30.0709 80ZM57.1499 71.9936C57.8643 71.565 58.435 71.1678 58.8203 70.8882C59.1783 70.6285 59.4805 70.3929 59.5246 70.3588C59.5752 70.3195 59.5539 70.3362 59.5278 70.3561C59.4936 70.3822 59.4117 70.4445 59.3004 70.526C59.0798 70.6876 58.6787 70.9727 58.1462 71.2988L37.2538 37.1887C36.5713 37.6067 36.0277 37.9902 35.6683 38.2534C35.4876 38.3857 35.3373 38.4996 35.2352 38.5777C35.1411 38.6496 35.0523 38.7185 35.0354 38.7315C34.9991 38.7597 35.0261 38.7386 35.0669 38.7076C35.1131 38.6724 35.2066 38.6018 35.3309 38.5116C35.5775 38.3327 36.0057 38.0325 36.5701 37.6939L57.1499 71.9936ZM59.9102 70.084C59.9631 70.0431 60.0485 69.9795 60.3868 69.7308C60.6471 69.5394 61.1433 69.1755 61.6588 68.7745L37.1012 37.2005C37.1038 37.1984 37.0775 37.2189 37.0041 37.2736C36.9273 37.331 36.8372 37.3974 36.6932 37.5033C36.4615 37.6736 35.9769 38.0281 35.4898 38.4035L59.9102 70.084ZM63.5221 67.1296C62.3298 68.322 61.2185 69.1259 60.5183 69.5927C60.3526 69.7032 60.2143 69.7918 60.1201 69.8513C60.0319 69.907 59.9613 69.9506 59.9611 69.9507C59.8666 70.0091 60.2029 69.8042 60.5569 69.5682C61.1563 69.1686 63.6891 67.4943 65.8746 64.372C68.4522 60.6896 69.5 56.5884 69.5 52.8675H29.5C29.5 49.1766 30.5403 45.0979 33.1048 41.4342C35.2772 38.3307 37.7912 36.6714 38.3681 36.2868C38.7108 36.0583 39.035 35.8609 38.9276 35.9273C38.9241 35.9294 38.6535 36.0953 38.3298 36.311C37.6015 36.7966 36.4603 37.623 35.2379 38.8454L63.5221 67.1296ZM62.6852 67.9058C73.0542 58.8146 80 45.2578 80 29.97H40C40 32.9072 38.6658 35.7679 36.3148 37.8292L62.6852 67.9058ZM30 36.2238C28.7229 36.2238 27.5425 35.8398 26.4459 35.0686L3.43406 67.7864C10.8575 73.0077 19.9971 76.2237 30 76.2237V36.2238ZM34.7856 53.9082C34.7153 54.47 34.6308 54.8682 34.602 54.9993C34.5865 55.07 34.5782 55.1027 34.5858 55.0714C34.5958 55.0305 34.6078 54.9821 34.6428 54.842L-4.16285 45.1405C-4.22054 45.3713 -4.66863 47.0514 -4.90556 48.9468L34.7856 53.9082ZM34.52 55.3093C34.4232 55.6602 34.2817 55.9972 34.0991 56.3121L-0.499055 36.2379C-2.03575 38.8865 -3.22581 41.7214 -4.04001 44.6732L34.52 55.3093ZM34.1085 56.2957C33.9161 56.628 33.5202 57.2044 32.8788 57.8057L5.52118 28.6243C2.9598 31.0256 1.00386 33.642 -0.508526 36.2543L34.1085 56.2957ZM33.3421 57.3571C33.1661 57.5332 33.0408 57.6363 32.9709 57.6908C32.8992 57.7469 32.8125 57.8089 32.689 57.8844L11.831 23.7531C9.49653 25.1797 7.15132 26.9794 5.05786 29.0729L33.3421 57.3571ZM32.2807 58.1273C32.0278 58.2737 31.7835 58.3905 31.5684 58.4781C31.3578 58.5639 31.2183 58.6042 31.1823 58.614L20.6577 20.0235C17.9043 20.7744 15.0676 21.8728 12.2393 23.5102L32.2807 58.1273ZM31.0944 58.6378C30.7353 58.734 30.3652 58.7826 29.9935 58.7825L30.0065 18.7825C26.8796 18.7815 23.7661 19.1907 20.7456 19.9997L31.0944 58.6378ZM30.1514 58.7819C29.0228 58.7905 27.9356 58.3575 27.1218 57.5755L54.8382 28.7345C48.1258 22.2839 39.1579 18.7126 29.8486 18.7831L30.1514 58.7819ZM26.8379 57.2971C26.3243 56.7836 25.9709 56.2098 25.7798 55.7546L62.6602 40.2679C60.9091 36.0977 58.3957 32.2864 55.1221 29.0129L26.8379 57.2971ZM25.5799 55.2602C25.4401 54.9007 25.3722 54.6002 25.3422 54.4004L64.8978 48.4546C64.5078 45.8598 63.8399 43.2818 62.8601 40.7623L25.5799 55.2602ZM33.6175 35.0662C32.5488 35.8176 31.2747 36.2217 29.9683 36.2238L30.0317 76.2237C39.5511 76.2086 48.8351 73.2636 56.6225 67.7888L33.6175 35.0662ZM39.155 20.4845C39.7529 21.8567 40.0541 23.3397 40.039 24.8365L0.0410268 24.431C-0.000916313 28.5691 0.831943 32.6693 2.48503 36.463L39.155 20.4845ZM40.04 24.6337C40.04 25.6906 39.8533 27.2384 39.0584 29.0048L2.58157 12.5902C0.706674 16.7566 0.0399995 20.9444 0.0399995 24.6337H40.04ZM39.0584 29.0048C38.7045 29.7913 38.1011 30.7844 37.1221 31.7634L8.83786 3.47911C6.05886 6.25812 4.01549 9.40372 2.58157 12.5902L39.0584 29.0048ZM37.1221 31.7634C36.1064 32.7792 35.101 33.3733 34.3673 33.7034L17.9527 -2.77343C14.819 -1.36327 11.6536 0.663341 8.83786 3.47911L37.1221 31.7634ZM34.3673 33.7034C32.5977 34.4998 31.0491 34.685 30 34.685V-5.315C26.3109 -5.315 22.1223 -4.64976 17.9527 -2.77343L34.3673 33.7034ZM30 34.685C28.9456 34.685 27.3506 34.4765 25.6327 33.7034L42.0473 -2.77343C37.9294 -4.62649 33.8144 -5.315 30 -5.315V34.685ZM25.6327 33.7034C24.8688 33.3597 23.8872 32.7686 22.9074 31.7929L51.1326 3.44962C48.3528 0.68138 45.2112 -1.34968 42.0473 -2.77343L25.6327 33.7034ZM22.8779 31.7634C21.8864 30.7719 21.2925 29.7823 20.9512 29.0262L57.4088 12.5688C55.9874 9.42016 53.9536 6.27061 51.1621 3.47911L22.8779 31.7634ZM20.9416 29.0048C20.1467 27.2384 19.96 25.6906 19.96 24.6337H59.96C59.96 20.9444 59.2933 16.7566 57.4184 12.5902L20.9416 29.0048ZM19.96 24.6337C19.96 23.5844 20.1668 21.9791 20.9512 20.2413L57.4088 36.6987C59.2732 32.5684 59.96 28.4431 59.96 24.6337H19.96ZM20.8581 20.4508C21.3269 19.3796 21.9894 18.4043 22.8124 17.5737L51.2276 45.7263C53.8697 43.0597 55.9967 39.9281 57.5019 36.4892L20.8581 20.4508ZM22.9566 17.4296C23.7875 16.6079 24.7628 15.9465 25.8337 15.4787L41.8463 52.1338C45.2844 50.6319 48.4158 48.5086 51.0834 45.8704L22.9566 17.4296ZM26.2518 15.3017C28.6343 14.3247 31.3057 14.3247 33.6882 15.3017L18.5118 52.3108C25.8539 55.3216 34.0861 55.3216 41.4282 52.3108L26.2518 15.3017ZM34.1063 15.4787C35.1772 15.9465 36.1525 16.6079 36.9834 17.4296L8.85659 45.8704C11.5242 48.5086 14.6556 50.6319 18.0937 52.1338L34.1063 15.4787ZM37.021 17.4668C38.037 18.4769 38.8546 19.7025 39.401 21.0746L2.23905 35.8729C3.73524 39.6302 5.98236 43.013 8.81905 45.8332L37.021 17.4668ZM68.66 48.3713C68.66 47.5132 68.6058 46.6848 68.5083 45.891C68.4111 45.1 68.2775 44.396 68.1385 43.7935C68.0016 43.2005 67.8624 42.7191 67.765 42.401C67.7165 42.2426 67.675 42.1137 67.6483 42.032C67.6348 41.9906 67.6236 41.9566 67.6163 41.9348C67.6097 41.9147 67.6038 41.8971 67.6037 41.8968C67.5986 41.8814 67.6164 41.9348 67.6371 41.9982C67.6601 42.0685 67.698 42.1861 67.743 42.333C67.8333 42.6281 67.966 43.0861 68.0972 43.6547C68.2306 44.2328 68.3596 44.9115 68.4535 45.6759C68.5476 46.4429 68.6 47.2432 68.6 48.0713H28.6C28.6 48.9293 28.6542 49.7577 28.7517 50.5515C28.8489 51.3425 28.9825 52.0465 29.1215 52.649C29.2584 53.242 29.3976 53.7234 29.495 54.0415C29.5435 54.1999 29.585 54.3289 29.6117 54.4105C29.6252 54.4519 29.6364 54.4859 29.6437 54.5077C29.6503 54.5278 29.6562 54.5454 29.6563 54.5457C29.6614 54.5611 29.6436 54.5077 29.6229 54.4443C29.5999 54.374 29.562 54.2564 29.517 54.1095C29.4267 53.8144 29.294 53.3564 29.1628 52.7878C29.0294 52.2097 28.9004 51.531 28.8065 50.7666C28.7124 49.9996 28.66 49.1993 28.66 48.3713H68.66ZM67.683 42.0846C66.4898 38.2813 64.7278 34.6804 62.4568 31.4044L29.5832 54.1931C29.5544 54.1516 29.5321 54.106 29.517 54.0579L67.683 42.0846ZM62.4913 31.4543C60.148 28.052 57.2707 25.0504 53.9705 22.5654L29.9095 54.5196C29.7698 54.4144 29.6479 54.2873 29.5487 54.1432L62.4913 31.4543ZM53.966 22.562C51.5205 20.7217 48.8693 19.1718 46.066 17.9436L30.014 54.5814C29.9785 54.5659 29.945 54.5463 29.914 54.523L53.966 22.562ZM49.1608 52.8856C50.9015 51.7211 52.5208 50.3845 53.9941 48.896L25.5659 20.7565C25.9784 20.3397 26.4318 19.9655 26.9192 19.6394L49.1608 52.8856ZM53.831 49.0589C55.8614 47.0544 57.6446 44.814 59.1425 42.3856L25.0975 21.3869C25.2756 21.0982 25.4876 20.8319 25.729 20.5936L53.831 49.0589ZM59.1842 42.3176C62.493 36.9048 64.1969 30.6638 64.0975 24.3206L24.1025 24.9469C24.0832 23.7161 24.4138 22.5052 25.0558 21.4549L59.1842 42.3176ZM64.0989 24.8411C64.1468 20.2221 63.2495 15.6421 61.4622 11.3826L24.5778 26.8599C24.2547 26.0897 24.0924 25.2616 24.1011 24.4264L64.0989 24.8411ZM61.3977 11.2307C59.6626 7.18966 57.1656 3.52059 54.0429 0.42392L25.8771 28.8261C25.3528 28.3062 24.9336 27.6902 24.6423 27.0118L61.3977 11.2307ZM53.9396 0.322212C50.8608 -2.68706 47.2478 -5.09576 43.2858 -6.78035L27.6342 30.0304C27.0192 29.7688 26.4583 29.3949 25.9804 28.9278L53.9396 0.322212ZM43.1863 -6.82232C38.9206 -8.60897 34.3341 -9.5032 29.7096 -9.44992L30.1704 30.5474C29.3343 30.5571 28.505 30.3954 27.7337 30.0723L43.1863 -6.82232ZM30.1579 -9.45006C25.5327 -9.50045 20.9462 -8.60309 16.6811 -6.81331L32.1589 30.0708C31.3877 30.3944 30.5584 30.5567 29.7221 30.5476L30.1579 -9.45006ZM16.747 -6.84081C12.5487 -5.09668 8.74938 -2.5163 5.58031 0.743214L34.2597 28.6268C33.6448 29.2592 32.9076 29.7599 32.093 30.0983L16.747 -6.84081ZM5.69047 0.630796C2.61953 3.74005 0.171998 7.40829 -1.52005 11.4376L35.3601 26.9249C35.076 27.6014 34.6651 28.2172 34.1495 28.7392L5.69047 0.630796ZM-1.52217 11.4426C-3.3095 15.7021 -4.20681 20.2821 -4.15893 24.9011L35.8389 24.4864C35.8476 25.3216 35.6853 26.1497 35.3622 26.9199L-1.52217 11.4426ZM-4.16 24.6938C-4.16 27.8554 -3.72518 31.0614 -2.77322 34.228L35.5332 22.712C35.7652 23.4836 35.84 24.1721 35.84 24.6938H-4.16ZM-2.85048 33.9644C-2.06076 36.7284 -0.900814 39.5784 0.830537 42.4017L34.9295 21.4908C35.121 21.8032 35.2771 22.1111 35.3981 22.3932C35.517 22.6706 35.5821 22.8763 35.6105 22.9756L-2.85048 33.9644ZM0.396855 41.6591C2.32686 45.1331 4.68056 47.6311 6.07787 49.0284L34.3621 20.7441C34.2082 20.5902 34.2719 20.6415 34.4379 20.845C34.6082 21.0539 34.9675 21.5213 35.3631 22.2334L0.396855 41.6591ZM6.07787 49.0284C7.68597 50.6365 9.44801 52.0354 11.3281 53.2247L32.7119 19.4203C33.272 19.7746 33.834 20.216 34.3621 20.7441L6.07787 49.0284ZM13.886 18.0512C11.0131 19.3302 8.30652 20.9542 5.82605 22.8872L30.414 54.4378C30.3339 54.5001 30.2466 54.5525 30.154 54.5938L13.886 18.0512ZM5.92578 22.81C2.79402 25.2191 0.0991376 28.0384 -2.10782 31.0584L30.1878 54.6591C30.2171 54.619 30.2508 54.5792 30.2828 54.5462C30.3149 54.5131 30.3288 54.5038 30.3142 54.515L5.92578 22.81ZM-2.3271 31.3645C-4.66549 34.6942 -6.46486 38.3714 -7.6591 42.261L30.5791 54.0015C30.5406 54.127 30.4825 54.2456 30.4071 54.353L-2.3271 31.3645ZM-6.42854 39.187C-8.76779 43.8655 -8.6 48.1959 -8.6 48.4313H31.4C31.4 48.4136 31.402 48.7856 31.3821 49.2447C31.3612 49.7236 31.3152 50.371 31.2065 51.1322C30.992 52.6334 30.5089 54.7548 29.3485 57.0755L-6.42854 39.187ZM25.6253 34.3728C24.3195 33.0514 23.72 31.5328 23.72 29.97H-16.28C-16.28 42.7922 -10.9995 54.2186 -2.82531 62.4897L25.6253 34.3728ZM23.72 29.97C23.72 26.5893 26.5671 23.7162 30 23.7162V-16.2838C4.51288 -16.2838 -16.28 4.46074 -16.28 29.97H23.72ZM30 23.7162C33.4329 23.7162 36.28 26.5893 36.28 29.97H76.28C76.28 4.46074 55.4871 -16.2838 30 -16.2838V23.7162ZM36.28 29.9472C36.2782 31.5598 35.6379 33.1061 34.4991 34.2479L62.8209 62.4946C71.427 53.8656 76.2661 42.1798 76.28 29.9928L36.28 29.9472Z" fill="white" mask="url(#path-1-inside-1_406_191)"/>
</svg>
